<mxfile host="app.diagrams.net" modified="2023-11-06T08:43:38.839Z" agent="Mozilla/5.0 (Windows NT 10.0; Win64; x64) AppleWebKit/537.36 (KHTML, like Gecko) Chrome/118.0.0.0 Safari/537.36" version="22.0.8" etag="jWbJlVAiOfT6YxywMMNV" type="github">
  <diagram name="第 1 页" id="1vDe1OUjqaoONvCQqmcD">
    <mxGraphModel>
      <root>
        <mxCell id="0" />
        <mxCell id="1" parent="0" />
      </root>
    </mxGraphModel>
  </diagram>
</mxfile>
